<?xml version="1.0" encoding="UTF-8"?>
<svg xmlns="http://www.w3.org/2000/svg" xmlns:xlink="http://www.w3.org/1999/xlink" width="375pt" height="374.999991pt" viewBox="0 0 375 374.999991" version="1.2">
<defs>
<clipPath id="clip1">
  <path d="M 141.605469 188.949219 L 189.25 188.949219 L 189.25 230.839844 L 141.605469 230.839844 Z M 141.605469 188.949219 "/>
</clipPath>
<clipPath id="clip2">
  <path d="M 209.921875 143.886719 L 244.71875 143.886719 L 244.71875 194.519531 L 209.921875 194.519531 Z M 209.921875 143.886719 "/>
</clipPath>
<clipPath id="clip3">
  <path d="M 113 88.644531 L 262 88.644531 L 262 146.394531 L 113 146.394531 Z M 113 88.644531 "/>
</clipPath>
</defs>
<g id="surface1">
<path style=" stroke:none;fill-rule:nonzero;fill:rgb(100%,100%,100%);fill-opacity:1;" d="M 169.644531 155.976562 C 165.050781 155.976562 163.636719 156.101562 162.917969 156.210938 C 161.710938 156.390625 160.664062 157.148438 160.109375 158.242188 L 145.492188 187.101562 C 144.796875 188.46875 144.992188 190.117188 145.980469 191.285156 C 146.933594 192.414062 147.1875 192.691406 147.464844 192.984375 C 147.613281 193.136719 147.777344 193.3125 148.644531 194.335938 C 148.699219 194.398438 148.753906 194.460938 148.8125 194.523438 C 148.875 194.589844 148.9375 194.648438 149 194.714844 C 149.097656 194.542969 149.207031 194.371094 149.324219 194.210938 C 149.5 193.972656 149.722656 193.761719 149.972656 193.566406 C 149.988281 193.523438 150.007812 193.476562 150.027344 193.433594 C 150.214844 193.132812 150.398438 192.828125 150.585938 192.523438 C 150.832031 192.222656 151.109375 191.964844 151.414062 191.746094 C 149.695312 189.71875 150.734375 191.035156 148.859375 188.824219 L 163.480469 159.964844 C 164.425781 159.820312 166.84375 159.773438 169.644531 159.773438 C 170.429688 159.773438 171.242188 159.777344 172.0625 159.785156 C 172.273438 159.550781 172.507812 159.335938 172.757812 159.15625 C 173.046875 157.8125 174.046875 156.519531 175.3125 156.023438 C 173.453125 155.996094 171.464844 155.976562 169.644531 155.976562 "/>
<path style=" stroke:none;fill-rule:nonzero;fill:rgb(100%,100%,100%);fill-opacity:1;" d="M 230.367188 200.457031 C 230.058594 197.699219 228.40625 196.050781 227.1875 195.050781 C 226.296875 194.316406 225.429688 193.546875 224.515625 192.734375 C 224.09375 192.363281 223.675781 191.992188 223.253906 191.621094 C 222.570312 191.023438 221.886719 190.429688 221.203125 189.832031 C 219.972656 188.757812 218.742188 187.6875 217.515625 186.609375 C 216.722656 185.917969 215.9375 185.21875 215.152344 184.523438 C 214.304688 183.769531 213.429688 182.992188 212.558594 182.230469 C 211.957031 181.703125 211.347656 181.179688 210.757812 180.675781 C 210.246094 180.242188 209.722656 179.792969 209.214844 179.351562 C 207.734375 178.058594 206.226562 176.734375 204.773438 175.457031 L 203.894531 174.683594 C 202.40625 173.378906 200.917969 172.070312 199.433594 170.757812 C 199.125 170.488281 197.15625 168.648438 194.589844 166.238281 C 194.460938 166.378906 194.320312 166.507812 194.179688 166.621094 C 192.722656 167.796875 190.953125 167.574219 189.539062 166.691406 C 192.984375 169.929688 196.476562 173.207031 196.941406 173.613281 C 198.425781 174.925781 199.914062 176.234375 201.40625 177.542969 C 203.179688 179.105469 204.957031 180.664062 206.738281 182.21875 C 207.84375 183.183594 208.96875 184.125 210.070312 185.09375 C 211.726562 186.546875 213.371094 188.015625 215.023438 189.46875 C 216.9375 191.144531 218.855469 192.8125 220.773438 194.488281 C 222.109375 195.65625 223.421875 196.859375 224.792969 197.988281 C 225.734375 198.761719 226.46875 199.609375 226.609375 200.882812 C 226.707031 201.738281 226.71875 202.574219 226.238281 203.3125 C 225.746094 204.066406 225.132812 204.707031 224.390625 205.238281 C 223.769531 205.6875 222.859375 205.917969 221.945312 205.917969 C 220.984375 205.917969 220.015625 205.664062 219.355469 205.132812 C 218.035156 204.070312 216.617188 203.125 215.234375 202.136719 C 213.21875 200.691406 211.195312 199.261719 209.179688 197.816406 C 206.828125 196.132812 204.484375 194.4375 202.132812 192.75 C 200.527344 191.59375 198.90625 190.449219 197.308594 189.277344 C 196.683594 188.816406 196.03125 188.492188 195.242188 188.390625 C 195.144531 188.378906 195.046875 188.371094 194.953125 188.371094 C 193.816406 188.371094 192.945312 189.261719 193.058594 190.441406 C 193.144531 191.332031 193.59375 192.023438 194.296875 192.535156 C 196.0625 193.824219 197.84375 195.09375 199.621094 196.367188 C 201.125 197.445312 202.636719 198.511719 204.132812 199.589844 C 206.394531 201.222656 208.644531 202.871094 210.90625 204.503906 C 212.617188 205.738281 214.335938 206.96875 216.0625 208.179688 C 217.738281 209.351562 217.882812 211.113281 217.164062 212.640625 C 216.511719 214.019531 215.371094 214.667969 214.152344 214.667969 C 213.460938 214.667969 212.746094 214.460938 212.082031 214.0625 C 210.097656 212.875 208.289062 211.398438 206.402344 210.054688 C 203.96875 208.320312 201.527344 206.589844 199.097656 204.851562 C 196.820312 203.226562 194.539062 201.601562 192.277344 199.953125 C 191.75 199.5625 191.210938 199.347656 190.582031 199.347656 C 190.496094 199.347656 190.40625 199.351562 190.316406 199.359375 C 189.335938 199.449219 188.796875 199.832031 188.523438 200.71875 C 188.25 201.617188 188.523438 202.511719 189.25 203.042969 C 192.828125 205.652344 196.40625 208.261719 199.984375 210.867188 C 202.203125 212.484375 204.433594 214.082031 206.636719 215.71875 C 207.355469 216.25 207.695312 217.039062 207.753906 217.933594 C 207.816406 218.941406 207.453125 219.8125 206.835938 220.578125 C 206.09375 221.496094 205.15625 221.980469 204.167969 221.980469 C 203.550781 221.980469 202.914062 221.792969 202.292969 221.40625 C 201.328125 220.796875 200.410156 220.105469 199.476562 219.445312 C 198.484375 218.742188 197.503906 218.015625 196.503906 217.316406 C 195.0625 216.304688 193.605469 215.320312 192.164062 214.308594 C 190.195312 212.921875 188.242188 211.511719 186.269531 210.125 C 185.855469 209.832031 185.457031 209.6875 185.078125 209.6875 C 184.578125 209.6875 184.109375 209.941406 183.660156 210.441406 C 182.886719 211.304688 182.898438 212.5625 183.71875 213.207031 C 184.71875 214 185.734375 214.765625 186.753906 215.535156 C 189.253906 217.414062 191.757812 219.289062 194.257812 221.167969 C 194.742188 221.535156 194.816406 221.894531 194.566406 222.457031 C 193.867188 224.027344 192.496094 224.78125 191.011719 224.78125 C 190.585938 224.78125 190.152344 224.71875 189.71875 224.59375 C 188.828125 224.339844 188.027344 223.75 187.1875 223.320312 C 187.144531 223.296875 186.894531 223.105469 186.503906 222.796875 C 186.511719 222.832031 186.519531 222.867188 186.523438 222.902344 C 186.691406 224.003906 186.261719 225.097656 185.621094 225.96875 C 185.476562 226.160156 185.304688 226.335938 185.113281 226.5 C 185.253906 226.59375 185.34375 226.640625 185.46875 226.703125 C 185.648438 226.792969 185.863281 226.917969 186.09375 227.050781 C 186.777344 227.449219 187.625 227.945312 188.6875 228.246094 C 189.453125 228.464844 190.238281 228.578125 191.011719 228.578125 C 194.078125 228.578125 196.761719 226.828125 198.015625 224.007812 C 198.128906 223.761719 198.21875 223.511719 198.289062 223.261719 C 198.925781 223.714844 199.582031 224.179688 200.292969 224.625 C 201.496094 225.378906 202.835938 225.777344 204.167969 225.777344 C 206.324219 225.777344 208.3125 224.78125 209.773438 222.96875 C 210.972656 221.480469 211.578125 219.765625 211.539062 217.992188 C 212.386719 218.300781 213.273438 218.464844 214.152344 218.464844 C 216.9375 218.464844 219.34375 216.894531 220.582031 214.265625 C 221.296875 212.742188 221.503906 211.160156 221.242188 209.691406 C 221.472656 209.707031 221.707031 209.714844 221.945312 209.714844 C 223.695312 209.714844 225.347656 209.222656 226.59375 208.328125 C 227.710938 207.523438 228.652344 206.539062 229.398438 205.394531 C 230.550781 203.632812 230.519531 201.832031 230.367188 200.457031 "/>
<path style=" stroke:none;fill-rule:nonzero;fill:rgb(100%,100%,100%);fill-opacity:1;" d="M 190.894531 150.636719 C 188.910156 150.636719 186.945312 150.90625 184.996094 151.3125 C 182.339844 151.859375 179.847656 152.296875 177.515625 153.6875 C 177.273438 153.832031 171.546875 156.421875 167.917969 160.492188 C 167.101562 161.9375 166.296875 163.394531 165.507812 164.855469 C 165.375 165.09375 165.285156 165.375 165.257812 165.648438 C 165.089844 167.167969 164.964844 168.695312 164.792969 170.214844 C 164.648438 171.542969 164.597656 172.90625 164.253906 174.1875 C 163.867188 175.625 163.234375 177.003906 162.648438 178.382812 C 162.265625 179.296875 162.257812 180.167969 162.75 181.007812 C 163.65625 182.5625 165.0625 183.398438 166.816406 183.582031 C 167.296875 183.632812 167.78125 183.65625 168.261719 183.65625 C 169.539062 183.65625 170.808594 183.476562 172.035156 183.078125 C 173.644531 182.558594 175.035156 181.59375 176.265625 180.421875 C 177.515625 179.226562 178.554688 177.867188 179.332031 176.3125 C 179.9375 175.117188 180.367188 173.867188 180.585938 172.535156 C 180.714844 171.777344 180.742188 170.972656 181.289062 170.339844 C 181.511719 170.085938 181.699219 169.800781 181.917969 169.546875 C 182.898438 168.421875 184.121094 167.621094 185.566406 167.398438 C 186.050781 167.324219 186.539062 167.285156 187.023438 167.285156 C 188.140625 167.285156 189.253906 167.484375 190.328125 167.890625 C 190.886719 168.101562 191.429688 168.332031 191.859375 168.796875 C 192.585938 169.585938 193.328125 170.363281 194.109375 171.097656 C 195.027344 171.964844 195.992188 172.78125 196.941406 173.613281 C 198.425781 174.925781 199.914062 176.234375 201.40625 177.542969 C 203.179688 179.105469 204.957031 180.664062 206.738281 182.21875 C 207.84375 183.183594 208.96875 184.125 210.070312 185.09375 C 211.726562 186.546875 213.371094 188.015625 215.023438 189.46875 C 216.9375 191.144531 218.855469 192.8125 220.773438 194.488281 C 222.109375 195.65625 223.421875 196.859375 224.792969 197.988281 C 224.828125 198.015625 224.863281 198.027344 224.910156 198.027344 C 225.386719 198.027344 226.480469 196.476562 227.761719 194.648438 C 228.808594 193.152344 229.917969 191.097656 230.644531 189.417969 C 230.742188 189.195312 230.75 188.855469 230.652344 188.636719 C 229.855469 186.882812 229.027344 185.140625 228.199219 183.402344 C 226.890625 180.652344 225.570312 177.914062 224.265625 175.167969 C 222.90625 172.316406 221.558594 169.460938 220.203125 166.609375 C 219.363281 164.835938 218.523438 163.058594 217.675781 161.285156 C 216.691406 159.234375 215.703125 157.183594 214.714844 155.132812 C 214.578125 154.847656 214.382812 154.726562 214.03125 154.703125 C 212.101562 154.570312 210.164062 154.464844 208.25 154.199219 C 206.9375 154.015625 205.652344 153.605469 204.363281 153.257812 C 202.550781 152.769531 200.753906 152.21875 198.941406 151.738281 C 196.535156 151.105469 194.082031 150.730469 191.59375 150.648438 C 191.359375 150.640625 191.125 150.636719 190.894531 150.636719 Z M 190.894531 154.179688 C 191.089844 154.179688 191.289062 154.183594 191.480469 154.191406 C 193.652344 154.261719 195.863281 154.589844 198.039062 155.167969 C 198.980469 155.414062 199.945312 155.691406 200.878906 155.960938 C 201.714844 156.199219 202.582031 156.445312 203.449219 156.679688 C 203.710938 156.75 203.972656 156.824219 204.238281 156.898438 C 205.347656 157.210938 206.496094 157.53125 207.765625 157.710938 C 209.277344 157.921875 210.78125 158.035156 212.242188 158.136719 L 212.378906 158.417969 C 213.085938 159.886719 213.792969 161.351562 214.496094 162.824219 C 215.148438 164.191406 215.800781 165.566406 216.449219 166.9375 L 217.019531 168.132812 C 217.492188 169.132812 217.96875 170.136719 218.441406 171.136719 C 219.320312 172.992188 220.199219 174.84375 221.082031 176.695312 C 221.738281 178.074219 222.398438 179.453125 223.054688 180.832031 C 223.710938 182.195312 224.363281 183.5625 225.015625 184.929688 C 225.648438 186.265625 226.304688 187.636719 226.941406 189.019531 C 226.320312 190.308594 225.554688 191.636719 224.875 192.609375 C 224.773438 192.757812 224.660156 192.921875 224.539062 193.09375 C 224.472656 193.035156 224.410156 192.980469 224.347656 192.925781 C 223.929688 192.550781 223.511719 192.183594 223.089844 191.8125 C 222.40625 191.214844 221.722656 190.621094 221.039062 190.023438 C 219.808594 188.949219 218.574219 187.878906 217.347656 186.800781 C 216.558594 186.105469 215.769531 185.410156 214.984375 184.710938 C 214.136719 183.960938 213.261719 183.183594 212.394531 182.421875 C 211.792969 181.894531 211.179688 181.375 210.589844 180.871094 C 210.082031 180.433594 209.558594 179.984375 209.050781 179.542969 C 207.566406 178.246094 206.058594 176.925781 204.601562 175.644531 L 203.730469 174.875 C 202.242188 173.570312 200.753906 172.257812 199.265625 170.949219 C 198.992188 170.707031 198.71875 170.46875 198.441406 170.226562 C 197.765625 169.640625 197.128906 169.085938 196.519531 168.511719 C 195.753906 167.792969 195.011719 167 194.449219 166.390625 C 193.414062 165.265625 192.164062 164.796875 191.566406 164.570312 C 190.105469 164.019531 188.578125 163.742188 187.023438 163.742188 C 186.363281 163.742188 185.691406 163.792969 185.03125 163.894531 C 182.855469 164.230469 180.859375 165.378906 179.261719 167.214844 C 179.070312 167.433594 178.917969 167.636719 178.792969 167.800781 C 178.730469 167.882812 178.660156 167.976562 178.625 168.015625 C 177.488281 169.332031 177.277344 170.789062 177.152344 171.65625 C 177.136719 171.753906 177.125 171.851562 177.105469 171.949219 C 176.949219 172.882812 176.648438 173.789062 176.183594 174.71875 C 175.609375 175.855469 174.820312 176.914062 173.835938 177.851562 C 172.851562 178.789062 171.910156 179.394531 170.953125 179.703125 C 170.113281 179.976562 169.210938 180.113281 168.261719 180.113281 C 167.90625 180.113281 167.542969 180.09375 167.179688 180.058594 C 166.582031 179.996094 166.246094 179.800781 166.003906 179.519531 C 166.0625 179.386719 166.117188 179.253906 166.171875 179.125 C 166.714844 177.867188 167.273438 176.5625 167.664062 175.109375 C 167.996094 173.859375 168.109375 172.632812 168.210938 171.550781 C 168.238281 171.222656 168.269531 170.910156 168.300781 170.609375 C 168.394531 169.789062 168.472656 168.96875 168.550781 168.175781 C 168.609375 167.5625 168.667969 166.929688 168.734375 166.308594 C 169.394531 165.09375 170.085938 163.84375 170.792969 162.589844 C 172.632812 160.628906 175.480469 158.644531 178.863281 156.972656 C 179.058594 156.878906 179.175781 156.820312 179.316406 156.734375 C 180.964844 155.753906 182.890625 155.359375 185.121094 154.902344 L 185.707031 154.78125 C 187.691406 154.371094 189.339844 154.179688 190.894531 154.179688 "/>
<g clip-path="url(#clip1)" clip-rule="nonzero">
<path style=" stroke:none;fill-rule:nonzero;fill:rgb(100%,100%,100%);fill-opacity:1;" d="M 181.105469 216.714844 C 181.105469 216.714844 181.105469 216.71875 181.101562 216.71875 C 181.105469 216.71875 181.105469 216.714844 181.105469 216.714844 Z M 179.613281 218.238281 C 179.613281 218.238281 179.613281 218.238281 179.609375 218.238281 C 179.613281 218.238281 179.613281 218.238281 179.613281 218.238281 Z M 174.683594 220.363281 C 174.753906 220.363281 174.824219 220.367188 174.894531 220.375 C 175.488281 220.449219 176.007812 220.816406 176.269531 221.359375 C 176.539062 221.917969 176.507812 222.398438 176.496094 222.578125 C 176.484375 222.824219 176.464844 223.058594 176.445312 223.28125 C 176.417969 223.625 176.386719 223.980469 176.425781 224.1875 C 176.558594 224.902344 176.976562 225.546875 177.703125 226.164062 C 178.707031 227.011719 179.597656 227.359375 180.597656 227.285156 C 180.902344 227.261719 181.144531 227.148438 181.417969 226.910156 C 182.414062 226.03125 185.015625 222.894531 185.511719 221.972656 C 185.640625 221.726562 185.769531 221.363281 185.585938 220.722656 C 185.203125 219.355469 184.332031 218.414062 182.917969 217.84375 C 181.671875 217.34375 181.074219 217.585938 180.652344 217.890625 C 180.195312 218.21875 179.730469 218.234375 179.574219 218.242188 C 179.054688 218.289062 178.542969 218.101562 178.171875 217.734375 C 177.792969 217.355469 177.605469 216.824219 177.660156 216.289062 L 177.660156 216.253906 C 177.667969 216.085938 177.679688 215.769531 177.820312 215.414062 C 178.09375 214.722656 178.273438 213.722656 177.246094 212.15625 C 176.4375 210.925781 175.34375 210.167969 173.902344 209.851562 C 172.90625 209.628906 172.132812 209.75 171.390625 210.238281 C 171.277344 210.3125 171.160156 210.382812 171.003906 210.472656 L 170.789062 210.601562 C 170.144531 210.988281 169.328125 210.925781 168.753906 210.445312 C 168.175781 209.964844 167.964844 209.167969 168.226562 208.464844 C 169.015625 206.34375 168.558594 204.714844 166.757812 203.175781 C 164.929688 201.617188 163.253906 201.417969 161.324219 202.53125 C 160.621094 202.9375 159.730469 202.804688 159.167969 202.214844 C 158.609375 201.621094 158.523438 200.722656 158.964844 200.035156 C 160.421875 197.757812 160.261719 195.863281 158.453125 194.074219 C 156.664062 192.304688 154.820312 192.042969 152.660156 193.261719 C 150.515625 195.699219 149.882812 196.460938 149.605469 196.792969 L 149.480469 196.941406 C 149.109375 197.382812 148.742188 197.832031 148.378906 198.277344 C 147.761719 199.035156 147.125 199.8125 146.453125 200.566406 C 145.617188 201.507812 145.21875 202.324219 145.164062 203.222656 C 145.078125 204.648438 145.53125 205.84375 146.546875 206.878906 C 147.371094 207.71875 148.363281 208.203125 149.578125 208.363281 C 150.460938 208.480469 151.261719 208.3125 152.03125 207.859375 C 152.203125 207.753906 152.390625 207.617188 152.628906 207.441406 C 152.769531 207.339844 152.914062 207.234375 153.074219 207.121094 C 153.675781 206.695312 154.480469 206.691406 155.089844 207.113281 C 155.695312 207.53125 155.980469 208.285156 155.800781 209.003906 C 155.785156 209.058594 155.777344 209.101562 155.769531 209.136719 C 155.738281 209.285156 155.691406 209.511719 155.566406 209.765625 C 155.199219 210.523438 155.191406 211.332031 155.542969 212.230469 C 156.246094 214.015625 157.464844 215.132812 159.269531 215.640625 C 160.613281 216.023438 161.605469 215.867188 162.492188 215.140625 C 162.617188 215.035156 162.726562 214.960938 162.84375 214.882812 C 162.894531 214.851562 162.953125 214.808594 163.023438 214.761719 C 163.613281 214.351562 164.386719 214.339844 164.988281 214.730469 C 165.585938 215.121094 165.894531 215.835938 165.761719 216.542969 C 165.746094 216.625 165.738281 216.691406 165.730469 216.75 C 165.699219 216.957031 165.660156 217.214844 165.542969 217.511719 C 165.335938 218.019531 165.375 218.589844 165.683594 219.539062 C 166.203125 221.148438 168.152344 222.890625 170.230469 222.921875 C 171.351562 222.929688 172.078125 222.605469 172.660156 221.808594 C 172.828125 221.578125 173.003906 221.378906 173.15625 221.203125 C 173.214844 221.132812 173.269531 221.066406 173.328125 220.996094 C 173.664062 220.59375 174.164062 220.363281 174.683594 220.363281 Z M 180.328125 230.839844 C 178.59375 230.839844 176.984375 230.191406 175.425781 228.871094 C 174.375 227.980469 173.640625 226.964844 173.230469 225.84375 C 172.335938 226.273438 171.3125 226.484375 170.175781 226.464844 C 166.816406 226.414062 163.367188 223.855469 162.324219 220.636719 C 162.1875 220.214844 162.058594 219.746094 161.972656 219.242188 C 160.847656 219.488281 159.621094 219.425781 158.3125 219.054688 C 155.457031 218.246094 153.367188 216.335938 152.261719 213.535156 C 152.027344 212.9375 151.875 212.335938 151.800781 211.742188 C 150.941406 211.953125 150.042969 212 149.121094 211.878906 C 147.125 211.617188 145.414062 210.773438 144.035156 209.367188 C 142.320312 207.625 141.496094 205.425781 141.640625 203.007812 C 141.746094 201.304688 142.460938 199.734375 143.824219 198.203125 C 144.445312 197.507812 145.03125 196.789062 145.648438 196.03125 C 146.027344 195.570312 146.402344 195.109375 146.789062 194.652344 L 146.894531 194.523438 C 147.214844 194.140625 147.875 193.34375 150.203125 190.703125 C 150.324219 190.566406 150.460938 190.453125 150.613281 190.359375 C 154.257812 188.148438 157.925781 188.574219 160.929688 191.550781 C 162.917969 193.519531 163.742188 195.855469 163.375 198.28125 C 165.328125 198.199219 167.242188 198.9375 169.042969 200.472656 C 170.992188 202.136719 172.027344 204.097656 172.121094 206.261719 C 172.929688 206.148438 173.777344 206.191406 174.664062 206.390625 C 177.011719 206.910156 178.871094 208.195312 180.191406 210.203125 C 181.027344 211.476562 181.484375 212.75 181.554688 214.011719 C 182.394531 213.996094 183.292969 214.175781 184.230469 214.554688 C 186.660156 215.53125 188.300781 217.332031 188.984375 219.761719 C 189.375 221.15625 189.253906 222.464844 188.617188 223.648438 C 187.8125 225.15625 184.867188 228.585938 183.742188 229.578125 C 182.894531 230.320312 181.925781 230.738281 180.859375 230.820312 C 180.683594 230.832031 180.503906 230.839844 180.328125 230.839844 "/>
</g>
<path style=" stroke:none;fill-rule:nonzero;fill:rgb(100%,100%,100%);fill-opacity:1;" d="M 154.152344 210.34375 C 153.753906 210.34375 153.355469 210.207031 153.023438 209.933594 C 152.277344 209.304688 152.175781 208.1875 152.796875 207.4375 L 159.101562 199.839844 C 159.722656 199.089844 160.835938 198.988281 161.585938 199.613281 C 162.332031 200.242188 162.433594 201.359375 161.8125 202.109375 L 155.507812 209.703125 C 155.160156 210.125 154.660156 210.34375 154.152344 210.34375 "/>
<path style=" stroke:none;fill-rule:nonzero;fill:rgb(100%,100%,100%);fill-opacity:1;" d="M 163.984375 217.9375 C 163.597656 217.9375 163.207031 217.8125 162.882812 217.550781 C 162.121094 216.9375 161.996094 215.820312 162.609375 215.058594 L 168.65625 207.464844 C 169.265625 206.699219 170.378906 206.574219 171.136719 207.1875 C 171.898438 207.796875 172.023438 208.914062 171.414062 209.679688 L 165.363281 217.273438 C 165.015625 217.710938 164.5 217.9375 163.984375 217.9375 "/>
<path style=" stroke:none;fill-rule:nonzero;fill:rgb(100%,100%,100%);fill-opacity:1;" d="M 174.320312 224.265625 C 173.9375 224.265625 173.550781 224.140625 173.226562 223.882812 C 172.460938 223.277344 172.332031 222.160156 172.9375 221.394531 L 177.726562 215.320312 C 178.332031 214.550781 179.441406 214.421875 180.207031 215.027344 C 180.96875 215.636719 181.097656 216.75 180.492188 217.519531 L 175.703125 223.59375 C 175.355469 224.035156 174.839844 224.265625 174.320312 224.265625 "/>
<path style=" stroke:none;fill-rule:nonzero;fill:rgb(100%,100%,100%);fill-opacity:1;" d="M 153.679688 148.105469 C 153.292969 148.105469 153.171875 148.226562 153.003906 148.566406 C 152.359375 149.890625 151.667969 151.28125 150.894531 152.816406 C 149.546875 155.496094 148.191406 158.175781 146.832031 160.851562 C 146.429688 161.648438 146.023438 162.441406 145.617188 163.234375 C 145.097656 164.238281 144.582031 165.246094 144.074219 166.253906 C 143.769531 166.863281 143.472656 167.476562 143.175781 168.089844 C 142.882812 168.691406 142.59375 169.289062 142.296875 169.882812 C 141.433594 171.605469 140.546875 173.34375 139.6875 175.027344 L 139.289062 175.816406 C 138.921875 176.539062 138.550781 177.261719 138.179688 177.984375 C 137.652344 179.011719 137.128906 180.039062 136.605469 181.070312 C 136.277344 181.722656 135.953125 182.375 135.625 183.03125 C 135.144531 184.007812 134.640625 185.015625 134.128906 186.003906 C 133.953125 186.34375 134.042969 186.84375 134.3125 187.015625 C 134.925781 187.402344 135.589844 187.742188 136.296875 188.101562 L 137.417969 188.675781 C 138.980469 189.480469 140.597656 190.3125 142.199219 191.078125 C 142.40625 191.175781 142.714844 191.234375 142.984375 191.222656 C 143.140625 191.214844 143.359375 191.207031 143.6875 190.535156 C 144.679688 188.492188 145.714844 186.429688 146.71875 184.4375 L 147.449219 182.980469 C 148.597656 180.6875 149.75 178.398438 150.90625 176.109375 C 151.664062 174.617188 152.421875 173.125 153.183594 171.632812 C 154.15625 169.71875 155.128906 167.800781 156.097656 165.886719 C 156.730469 164.632812 157.355469 163.375 157.980469 162.121094 C 158.488281 161.105469 158.996094 160.089844 159.503906 159.078125 C 160.410156 157.273438 161.378906 155.355469 162.34375 153.488281 C 162.582031 153.019531 162.585938 152.414062 162.046875 152.121094 C 161.601562 151.878906 161.152344 151.652344 160.671875 151.410156 C 160.441406 151.292969 160.207031 151.179688 159.976562 151.0625 C 159.527344 150.828125 159.074219 150.597656 158.625 150.367188 C 157.589844 149.828125 156.515625 149.277344 155.460938 148.757812 C 155.28125 148.667969 155.101562 148.570312 154.925781 148.472656 C 154.644531 148.324219 154.222656 148.09375 154.085938 148.105469 L 153.953125 148.117188 L 153.820312 148.113281 C 153.769531 148.109375 153.722656 148.105469 153.679688 148.105469 Z M 142.917969 194.769531 C 142.136719 194.769531 141.351562 194.597656 140.683594 194.277344 C 139.035156 193.492188 137.394531 192.648438 135.808594 191.832031 L 134.695312 191.261719 C 133.953125 190.878906 133.179688 190.488281 132.429688 190.011719 C 130.621094 188.867188 129.980469 186.335938 131 184.371094 C 131.496094 183.40625 131.992188 182.410156 132.46875 181.449219 C 132.796875 180.785156 133.125 180.125 133.460938 179.464844 C 133.984375 178.429688 134.511719 177.394531 135.042969 176.363281 C 135.410156 175.640625 135.78125 174.921875 136.144531 174.199219 L 136.546875 173.414062 C 137.402344 171.734375 138.285156 170 139.144531 168.289062 C 139.433594 167.710938 139.71875 167.125 140 166.542969 C 140.300781 165.925781 140.609375 165.285156 140.925781 164.652344 C 141.4375 163.636719 141.957031 162.625 142.476562 161.613281 C 142.882812 160.824219 143.289062 160.035156 143.6875 159.242188 C 145.046875 156.570312 146.398438 153.894531 147.746094 151.214844 C 148.511719 149.691406 149.195312 148.316406 149.835938 147.003906 C 150.640625 145.363281 152.078125 144.503906 153.898438 144.566406 C 155.03125 144.507812 155.9375 144.996094 156.605469 145.359375 C 156.738281 145.433594 156.875 145.507812 157.011719 145.574219 C 158.097656 146.109375 159.1875 146.667969 160.238281 147.210938 C 160.683594 147.441406 161.132812 147.671875 161.578125 147.902344 C 161.804688 148.015625 162.027344 148.128906 162.25 148.242188 C 162.734375 148.484375 163.230469 148.734375 163.726562 149.003906 C 165.910156 150.191406 166.660156 152.820312 165.476562 155.117188 C 164.519531 156.972656 163.59375 158.804688 162.65625 160.675781 C 162.148438 161.683594 161.640625 162.695312 161.136719 163.707031 C 160.507812 164.96875 159.878906 166.230469 159.242188 167.488281 C 158.273438 169.410156 157.300781 171.324219 156.324219 173.242188 C 155.566406 174.734375 154.808594 176.226562 154.054688 177.71875 C 152.898438 180 151.746094 182.285156 150.601562 184.570312 L 149.867188 186.03125 C 148.871094 188.015625 147.839844 190.066406 146.855469 192.089844 C 145.820312 194.222656 144.25 194.722656 143.117188 194.761719 C 143.050781 194.765625 142.984375 194.769531 142.917969 194.769531 "/>
<g clip-path="url(#clip2)" clip-rule="nonzero">
<path style=" stroke:none;fill-rule:nonzero;fill:rgb(100%,100%,100%);fill-opacity:1;" d="M 221.941406 147.5 C 220.835938 148 219.714844 148.535156 218.632812 149.054688 L 217.6875 149.503906 C 217.269531 149.703125 216.855469 149.902344 216.4375 150.101562 C 215.636719 150.488281 214.808594 150.886719 213.980469 151.269531 C 213.640625 151.425781 213.394531 152.011719 213.472656 152.230469 C 213.617188 152.65625 213.832031 153.101562 214.058594 153.574219 L 214.113281 153.6875 C 214.578125 154.652344 215.046875 155.621094 215.515625 156.585938 C 216.171875 157.929688 216.824219 159.277344 217.46875 160.628906 C 217.855469 161.4375 218.234375 162.261719 218.597656 163.058594 C 218.933594 163.792969 219.269531 164.527344 219.617188 165.253906 C 220.078125 166.230469 220.550781 167.199219 221.019531 168.167969 C 221.460938 169.074219 221.898438 169.976562 222.328125 170.886719 C 222.882812 172.046875 223.429688 173.214844 223.976562 174.382812 C 224.4375 175.359375 224.894531 176.339844 225.359375 177.316406 C 226.351562 179.410156 227.351562 181.507812 228.347656 183.601562 L 230.269531 187.632812 C 230.738281 188.617188 231.207031 189.601562 231.671875 190.585938 C 231.75 190.730469 232.140625 190.90625 232.3125 190.875 C 233.175781 190.5625 233.949219 190.25 234.660156 189.921875 C 236.484375 189.070312 237.984375 188.34375 239.382812 187.636719 C 239.945312 187.347656 240.589844 186.996094 241.078125 186.585938 C 241.214844 186.472656 241.214844 186.136719 241.140625 185.980469 C 240.199219 183.964844 239.222656 181.914062 238.285156 179.933594 L 237.507812 178.300781 C 236.21875 175.585938 234.933594 172.871094 233.640625 170.160156 C 233.105469 169.039062 232.570312 167.917969 232.03125 166.796875 C 231.441406 165.5625 230.851562 164.328125 230.261719 163.089844 C 229.367188 161.214844 228.480469 159.335938 227.59375 157.460938 L 226.113281 154.328125 C 225.140625 152.273438 224.167969 150.21875 223.203125 148.15625 C 222.898438 147.511719 222.683594 147.433594 222.4375 147.429688 C 222.347656 147.441406 222.257812 147.453125 222.167969 147.464844 C 222.09375 147.476562 221.992188 147.488281 221.941406 147.5 Z M 232.28125 194.417969 C 230.746094 194.417969 229.152344 193.511719 228.488281 192.113281 C 228.019531 191.128906 227.550781 190.144531 227.082031 189.164062 L 225.164062 185.132812 C 224.164062 183.035156 223.167969 180.9375 222.171875 178.835938 C 221.707031 177.859375 221.246094 176.875 220.785156 175.890625 C 220.238281 174.730469 219.695312 173.570312 219.144531 172.414062 C 218.714844 171.515625 218.28125 170.617188 217.847656 169.722656 C 217.371094 168.742188 216.898438 167.761719 216.429688 166.78125 C 216.078125 166.035156 215.734375 165.289062 215.390625 164.539062 C 215.03125 163.753906 214.664062 162.945312 214.285156 162.160156 C 213.644531 160.816406 212.996094 159.476562 212.34375 158.140625 C 211.875 157.171875 211.402344 156.199219 210.933594 155.230469 L 210.882812 155.117188 C 210.617188 154.570312 210.34375 154.003906 210.132812 153.375 C 209.457031 151.386719 210.546875 148.945312 212.515625 148.042969 C 213.3125 147.679688 214.125 147.285156 214.910156 146.90625 C 215.332031 146.707031 215.753906 146.5 216.175781 146.300781 L 217.113281 145.851562 C 218.226562 145.320312 219.378906 144.769531 220.53125 144.25 C 220.984375 144.042969 221.414062 143.988281 221.730469 143.949219 C 221.804688 143.941406 221.878906 143.929688 221.953125 143.917969 L 222.089844 143.890625 L 222.226562 143.886719 C 223.519531 143.847656 225.292969 144.300781 226.394531 146.648438 C 227.359375 148.703125 228.328125 150.757812 229.300781 152.808594 L 230.78125 155.941406 C 231.667969 157.816406 232.554688 159.691406 233.445312 161.5625 C 234.03125 162.796875 234.621094 164.03125 235.214844 165.261719 C 235.75 166.382812 236.289062 167.507812 236.824219 168.628906 C 238.117188 171.34375 239.40625 174.058594 240.695312 176.777344 L 241.46875 178.40625 C 242.414062 180.394531 243.386719 182.445312 244.335938 184.476562 C 245 185.898438 244.875 188.015625 243.347656 189.300781 C 242.585938 189.945312 241.71875 190.417969 240.976562 190.796875 C 239.542969 191.527344 238.003906 192.269531 236.140625 193.136719 C 235.335938 193.511719 234.464844 193.863281 233.480469 194.21875 C 233.097656 194.355469 232.691406 194.417969 232.28125 194.417969 "/>
</g>
<g clip-path="url(#clip3)" clip-rule="nonzero">
<path style=" stroke:none;fill-rule:nonzero;fill:rgb(100%,100%,100%);fill-opacity:1;" d="M 240.234375 121.433594 L 240.234375 94.273438 L 221.269531 94.273438 L 221.269531 109.566406 L 187.5 88.644531 L 113.109375 135.015625 L 120.328125 146.394531 L 187.5 104.550781 L 254.792969 146.394531 L 261.890625 135.015625 Z M 240.234375 121.433594 "/>
</g>
</g>
</svg>
